<svg id="Layer_1" height="512" viewBox="0 0 128 128" width="512" xmlns="http://www.w3.org/2000/svg" data-name="Layer 1"><path d="m121.5 64a57.5 57.5 0 1 1 -57.5-57.5 57.742 57.742 0 0 1 57.5 57.5z" fill="#4482c3"/><g fill="#3b70a8"><path d="m47.69 36.98c-12.65-.31-22.39-1.08-33.15-2.31a57.425 57.425 0 0 1 13.82-15.79c5.98.46 12.2.79 19.33.96 16 .38 34.56.08 51.59-1.25a57.619 57.619 0 0 1 13.99 15.76c-20.33 2.48-45.06 3.12-65.58 2.63z"/><path d="m116.68 87.06c-.64 1.48-1.35 2.92-2.11 4.33a57.654 57.654 0 0 1 -10.04 13.39h-.01c-7.54-.5-15.12-.83-24.21-.99-17.58-.31-38.26-.01-56.62 1.21a57.511 57.511 0 0 1 -12.34-17.86c20.92-.62 47.29-.78 68.96-.67 13.9.07 24.29.27 36.37.59z"/><path d="m121.5 64c0 1.13-.03 2.24-.1 3.35-21.57 2.46-50.36 3.11-73.71 2.7-15.67-.27-26.87-1.06-41.07-2.35-.08-1.22-.12-2.46-.12-3.7a57.836 57.836 0 0 1 1.47-12.98 367.283 367.283 0 0 0 39.72 3.1c22.82.55 50.84-.3 72.23-3.54h.01a58.2 58.2 0 0 1 1.57 13.42z"/></g><path d="m64 4.75a59.76 59.76 0 0 0 -11.94 1.2 1.75 1.75 0 0 0 .7 3.43 56.177 56.177 0 0 1 11.24-1.13 55.415 55.415 0 0 1 30.563 9.158 474.168 474.168 0 0 1 -61.607.266 56.014 56.014 0 0 1 9.344-5.044 1.75 1.75 0 1 0 -1.363-3.223 59.283 59.283 0 1 0 23.063-4.657zm-55.75 59.25a56.058 56.058 0 0 1 1.16-11.317 455.773 455.773 0 0 0 63.756 2.955c1.928-.039 1.935-3.04 0-3a456.507 456.507 0 0 1 -63.079-2.878 55.625 55.625 0 0 1 5.52-13.478 431.894 431.894 0 0 0 96.555-.308 55.371 55.371 0 0 1 5.57 13.2c-4.08.3-8.316 1.284-12.333 1.668-5.832.557-11.676.952-17.525 1.264-1.921.1-1.933 3.1 0 3 5.849-.312 11.693-.707 17.525-1.264 4.254-.407 8.756-1.494 13.065-1.713a55.645 55.645 0 0 1 1.286 11.871c0 .676-.025 1.351-.049 2.026-36.85 3.964-74.507 3.555-111.392.318-.032-.778-.059-1.558-.059-2.344zm20.942-43.567a474.09 474.09 0 0 0 69.175-.281 56.2 56.2 0 0 1 12.052 13.016 432.1 432.1 0 0 1 -93.086.3 55.6 55.6 0 0 1 11.859-13.035zm-1.473 85.843c12.661-.73 25.344-1.073 38.026-1.1 11.555-.022 23.109.869 34.644 1.061a55.671 55.671 0 0 1 -72.67.037zm87.71-20.745c-30.57-.779-61.165-.79-91.738-.194-1.928.038-1.934 3.038 0 3q45.189-.88 90.4.163-.507 1.037-1.055 2.055a55.878 55.878 0 0 1 -9.46 12.715c-12.593-.053-25.209-1.116-37.827-1.092-13.709.027-27.419.407-41.1 1.269a55.607 55.607 0 0 1 -16.136-34.086c36.757 3.215 74.278 3.62 111-.316a54.574 54.574 0 0 1 -4.085 16.486z" fill="#2d1d40"/><path d="m79.583 55.457q1.541-.054 3.08-.115a1.5 1.5 0 0 0 0-3q-1.54.062-3.08.115c-1.925.066-1.934 3.067 0 3z" fill="#2d1d40"/></svg>